<svg width="48" height="48" viewBox="0 0 48 48" fill="none" xmlns="http://www.w3.org/2000/svg">
<path d="M39 6H9C8.20435 6 7.44129 6.31607 6.87868 6.87868C6.31607 7.44129 6 8.20435 6 9V39C6 39.7956 6.31607 40.5587 6.87868 41.1213C7.44129 41.6839 8.20435 42 9 42H39C39.7956 42 40.5587 41.6839 41.1213 41.1213C41.6839 40.5587 42 39.7956 42 39V9C42 8.20435 41.6839 7.44129 41.1213 6.87868C40.5587 6.31607 39.7956 6 39 6Z" stroke="#AC8FF6" stroke-width="4"/>
<path d="M14 15V33" stroke="#AC8FF6" stroke-width="4" stroke-linecap="round" stroke-linejoin="round"/>
<path d="M16 25C19 25 23 24.2 23 20C23 15.8 19 15 16 15H14V25H16Z" stroke="#AC8FF6" stroke-width="4" stroke-linecap="round" stroke-linejoin="round"/>
<path d="M34 21.0246C33 21.0246 28 20.5266 28 24.0116C28 27.4966 34 26.5016 34 29.9876C34 33.4736 28 32.9746 28 32.9746" stroke="#AC8FF6" stroke-width="4" stroke-linecap="round" stroke-linejoin="round"/>
</svg>
