<svg width="48" height="48" viewBox="0 0 48 48" fill="none" xmlns="http://www.w3.org/2000/svg">
<path d="M12.632 16.42L24 31.58M12.632 31.58L24 16.42M6 24C6 15.514 6 11.272 8.636 8.636C11.272 6 15.516 6 24 6C32.484 6 36.728 6 39.364 8.636C42 11.272 42 15.516 42 24C42 32.484 42 36.728 39.364 39.364C36.728 42 32.484 42 24 42C15.516 42 11.272 42 8.636 39.364C6 36.728 6 32.484 6 24Z" stroke="#AC8FF6" stroke-width="4" stroke-linecap="round" stroke-linejoin="round"/>
<path d="M35.368 22.1059V29.6859C35.368 31.7739 34.388 31.5779 32.528 31.5779C31.2719 31.5779 30.0673 31.079 29.1791 30.1908C28.291 29.3026 27.792 28.098 27.792 26.8419C27.792 25.5859 28.291 24.3812 29.1791 23.4931C30.0673 22.6049 31.2719 22.1059 32.528 22.1059H35.368ZM35.368 22.1059V16.4199" stroke="#AC8FF6" stroke-width="4" stroke-linecap="round" stroke-linejoin="round"/>
</svg>
