<svg width="48" height="48" viewBox="0 0 48 48" fill="none" xmlns="http://www.w3.org/2000/svg">
<path d="M6 24C6 15.514 6 11.272 8.636 8.636C11.272 6 15.516 6 24 6C32.484 6 36.728 6 39.364 8.636C42 11.272 42 15.516 42 24C42 32.484 42 36.728 39.364 39.364C36.728 42 32.484 42 24 42C15.516 42 11.272 42 8.636 39.364C6 36.728 6 32.484 6 24Z" stroke="#AC8FF6" stroke-width="4" stroke-linecap="round" stroke-linejoin="round"/>
<path d="M25.894 31.5799L24.254 26.2739M24.254 26.2739L22.882 21.8379C21.764 18.2259 21.206 16.4219 20.21 16.4219C19.216 16.4219 18.656 18.2259 17.54 21.8379L16.166 26.2739M24.254 26.2739H16.166M14.526 31.5779L16.166 26.2739M31.578 31.5779V22.1059M31.578 17.3679V16.4219" stroke="#AC8FF6" stroke-width="4" stroke-linecap="round" stroke-linejoin="round"/>
</svg>
