<svg width="42" height="42" viewBox="0 0 42 42" fill="none" xmlns="http://www.w3.org/2000/svg">
<rect x="0.5" y="0.5" width="41" height="41" rx="20.5" stroke="#F6F7F9"/>
<path d="M16.443 14.3496C17.082 14.3496 17.673 14.3996 18.213 14.5476C18.754 14.6466 19.197 14.8446 19.59 15.0916C19.984 15.3389 20.279 15.6853 20.475 16.1306C20.672 16.5756 20.771 17.1206 20.771 17.7136C20.771 18.4066 20.623 18.9996 20.279 19.4446C19.984 19.8906 19.492 20.2856 18.902 20.5826C19.738 20.8306 20.377 21.2756 20.771 21.8686C21.165 22.4616 21.41 23.2046 21.41 24.0456C21.41 24.7386 21.262 25.3316 21.016 25.8266C20.771 26.3216 20.377 26.7666 19.934 27.0636C19.4526 27.3816 18.9207 27.6156 18.361 27.7556C17.771 27.9046 17.181 28.0036 16.591 28.0036H10V14.3496H16.443ZM16.049 19.8896C16.59 19.8896 17.033 19.7416 17.377 19.4946C17.721 19.2476 17.869 18.8016 17.869 18.2576C17.869 17.9606 17.819 17.6636 17.721 17.4666C17.623 17.2696 17.475 17.1196 17.279 16.9716C17.0786 16.8591 16.8631 16.7759 16.639 16.7246C16.393 16.6746 16.148 16.6746 15.852 16.6746H13V19.8906L16.049 19.8896ZM16.197 25.7276C16.492 25.7276 16.787 25.6776 17.033 25.6286C17.279 25.5786 17.525 25.4806 17.721 25.3316C17.9206 25.186 18.0881 25.0008 18.213 24.7876C18.311 24.5406 18.41 24.2436 18.41 23.8976C18.41 23.2046 18.213 22.7096 17.82 22.3636C17.426 22.0666 16.885 21.9186 16.246 21.9186H13V25.7286L16.197 25.7276ZM25.689 25.6776C26.0823 26.0736 26.6723 26.2716 27.459 26.2716C28 26.2716 28.492 26.1236 28.885 25.8766C29.279 25.5793 29.525 25.2823 29.623 24.9856H32.033C31.639 26.1726 31.049 27.0136 30.263 27.5576C29.475 28.0526 28.541 28.3496 27.41 28.3496C26.6865 28.3507 25.9691 28.2164 25.295 27.9536C24.6881 27.7273 24.1472 27.3534 23.721 26.8656C23.2633 26.411 22.9256 25.8499 22.738 25.2326C22.492 24.5896 22.393 23.8976 22.393 23.1056C22.393 22.3636 22.492 21.6716 22.738 21.0276C22.974 20.4072 23.3244 19.8366 23.771 19.3456C24.213 18.9006 24.754 18.5056 25.344 18.2576C26.0008 17.9939 26.7023 17.8595 27.41 17.8616C28.246 17.8616 28.984 18.0106 29.623 18.3566C30.263 18.7026 30.754 19.0986 31.147 19.6926C31.541 20.2366 31.837 20.8796 32.033 21.5726C32.131 22.2646 32.18 22.9576 32.131 23.7486H25C25 24.5406 25.295 25.2826 25.689 25.6786M28.787 20.4846C28.443 20.1386 27.902 19.9406 27.262 19.9406C26.8867 19.935 26.5156 20.0197 26.18 20.1876C25.885 20.3366 25.689 20.5346 25.492 20.7326C25.3098 20.9231 25.1899 21.1644 25.148 21.4246C25.098 21.6726 25.049 21.8696 25.049 22.0676H29.475C29.377 21.3256 29.131 20.8316 28.787 20.4846ZM24.459 15.2896H29.967V16.6256H24.46L24.459 15.2896Z" fill="#F6F7F9"/>
</svg>
