<svg width="48" height="48" viewBox="0 0 48 48" fill="none" xmlns="http://www.w3.org/2000/svg">
<path d="M3.882 2H44.12L41.924 40.416L24.004 47.136L6.08 40.416L3.882 2ZM8.12 6L9.924 37.584L24.004 42.864L38.08 37.584L39.882 6H8.12ZM10.966 10H36.66L36.444 13.774L21.864 20.754H36.044L35.236 34.922L24 39.136L12.764 34.922L12.536 30.934V30.926L12.386 28.146H16.406L16.53 30.714L16.61 32.094L24 34.862L31.392 32.09L31.812 24.75H12.18L11.968 21.054L26.71 14H24L11.49 14.024L10.966 10Z" fill="#AC8FF6"/>
</svg>
