<svg width="42" height="42" viewBox="0 0 42 42" fill="none" xmlns="http://www.w3.org/2000/svg">
<rect x="0.5" y="0.5" width="41" height="41" rx="20.5" stroke="#212430"/>
<path d="M21.001 18C20.2054 18 19.4423 18.3161 18.8797 18.8787C18.3171 19.4413 18.001 20.2044 18.001 21C18.001 21.7956 18.3171 22.5587 18.8797 23.1213C19.4423 23.6839 20.2054 24 21.001 24C21.7966 24 22.5597 23.6839 23.1223 23.1213C23.6849 22.5587 24.001 21.7956 24.001 21C24.001 20.2044 23.6849 19.4413 23.1223 18.8787C22.5597 18.3161 21.7966 18 21.001 18ZM21.001 16C22.3271 16 23.5989 16.5268 24.5365 17.4645C25.4742 18.4021 26.001 19.6739 26.001 21C26.001 22.3261 25.4742 23.5979 24.5365 24.5355C23.5989 25.4732 22.3271 26 21.001 26C19.6749 26 18.4031 25.4732 17.4655 24.5355C16.5278 23.5979 16.001 22.3261 16.001 21C16.001 19.6739 16.5278 18.4021 17.4655 17.4645C18.4031 16.5268 19.6749 16 21.001 16ZM27.501 15.75C27.501 16.0815 27.3693 16.3995 27.1349 16.6339C26.9005 16.8683 26.5825 17 26.251 17C25.9195 17 25.6015 16.8683 25.3671 16.6339C25.1327 16.3995 25.001 16.0815 25.001 15.75C25.001 15.4185 25.1327 15.1005 25.3671 14.8661C25.6015 14.6317 25.9195 14.5 26.251 14.5C26.5825 14.5 26.9005 14.6317 27.1349 14.8661C27.3693 15.1005 27.501 15.4185 27.501 15.75ZM21.001 13C18.527 13 18.123 13.007 16.972 13.058C16.188 13.095 15.662 13.2 15.174 13.39C14.7658 13.5404 14.3967 13.7806 14.094 14.093C13.7813 14.3956 13.5407 14.7647 13.39 15.173C13.2 15.663 13.095 16.188 13.059 16.971C13.007 18.075 13 18.461 13 21C13 23.475 13.007 23.878 13.058 25.029C13.095 25.812 13.2 26.339 13.389 26.826C13.559 27.261 13.759 27.574 14.091 27.906C14.428 28.242 14.741 28.443 15.171 28.609C15.665 28.8 16.191 28.906 16.971 28.942C18.075 28.994 18.461 29 21 29C23.475 29 23.878 28.993 25.029 28.942C25.811 28.905 26.337 28.8 26.826 28.611C27.2342 28.4606 27.6033 28.2204 27.906 27.908C28.243 27.572 28.444 27.259 28.61 26.828C28.8 26.336 28.906 25.81 28.942 25.028C28.994 23.925 29 23.538 29 21C29 18.526 28.993 18.122 28.942 16.971C28.905 16.189 28.799 15.661 28.61 15.173C28.4596 14.7648 28.2194 14.3957 27.907 14.093C27.6044 13.7803 27.2353 13.5397 26.827 13.389C26.337 13.199 25.811 13.094 25.029 13.058C23.926 13.006 23.54 13 21 13M21 11C23.717 11 24.056 11.01 25.123 11.06C26.187 11.11 26.913 11.277 27.55 11.525C28.21 11.779 28.766 12.123 29.322 12.678C29.8307 13.1777 30.2242 13.7825 30.475 14.45C30.722 15.087 30.89 15.813 30.94 16.878C30.987 17.944 31 18.283 31 21C31 23.717 30.99 24.056 30.94 25.122C30.89 26.188 30.722 26.912 30.475 27.55C30.2242 28.2175 29.8307 28.8223 29.322 29.322C28.8223 29.8307 28.2175 30.2242 27.55 30.475C26.913 30.722 26.187 30.89 25.123 30.94C24.056 30.987 23.717 31 21 31C18.283 31 17.944 30.99 16.877 30.94C15.813 30.89 15.088 30.722 14.45 30.475C13.7825 30.2242 13.1777 29.8307 12.678 29.322C12.1693 28.8223 11.7758 28.2175 11.525 27.55C11.277 26.913 11.11 26.187 11.06 25.122C11.012 24.056 11 23.717 11 21C11 18.283 11.01 17.944 11.06 16.878C11.11 15.812 11.277 15.088 11.525 14.45C11.7758 13.7825 12.1693 13.1777 12.678 12.678C13.1777 12.1693 13.7825 11.7758 14.45 11.525C15.087 11.277 15.812 11.11 16.877 11.06C17.945 11.013 18.284 11 21.001 11" fill="#212430"/>
</svg>
