<svg width="48" height="48" viewBox="0 0 48 48" fill="none" xmlns="http://www.w3.org/2000/svg">
<g clip-path="url(#clip0_391_2203)">
<path d="M29.976 25.4503C30.292 29.0103 27.496 31.9983 24 31.9983H16.044C14.662 31.9983 13.682 30.6663 14.094 29.3483C15.098 26.1303 17.966 21.0183 22.574 20.1323C26.084 19.4563 29.66 21.8903 29.976 25.4503ZM46 17.9983C44.894 17.9983 44 18.8923 44 19.9983V29.9983C44 33.3063 41.308 35.9983 38 35.9983H10C6.692 35.9983 4 33.3063 4 29.9983V13.9983C4 10.6903 6.692 7.99834 10 7.99834H26C27.106 7.99834 28 7.10434 28 5.99834C28 4.89234 27.106 3.99834 26 3.99834H10C4.486 3.99834 0 8.48434 0 13.9983V29.9983C0 35.5123 4.486 39.9983 10 39.9983H22V43.9983H16C14.896 43.9983 14 44.8923 14 45.9983C14 47.1043 14.896 47.9983 16 47.9983H32C33.106 47.9983 34 47.1043 34 45.9983C34 44.8923 33.106 43.9983 32 43.9983H26V39.9983H38C43.514 39.9983 48 35.5123 48 29.9983V19.9983C48 18.8923 47.106 17.9983 46 17.9983ZM27.172 17.3683C27.186 17.3743 27.202 17.3803 27.216 17.3883C27.984 17.7243 28.876 17.5063 29.434 16.8803L40.716 4.62034C41.412 3.84234 42.608 3.77634 43.384 4.47234C43.41 4.49634 43.434 4.51834 43.46 4.54434C44.198 5.28034 44.198 6.47434 43.462 7.21234C43.462 7.21234 43.462 7.21234 43.46 7.21434L31.772 18.5863C31.11 19.2483 31.016 20.2743 31.526 21.0603C31.534 21.0723 31.542 21.0843 31.548 21.0943C32.226 22.1523 33.704 22.3063 34.592 21.4183L46.28 10.0483C48.576 7.74834 48.576 4.02234 46.28 1.72234C43.982 -0.577655 40.256 -0.579656 37.956 1.71834C37.878 1.79634 26.434 14.2303 26.434 14.2303C25.524 15.2523 25.916 16.8263 27.172 17.3683Z" fill="#AC8FF6"/>
</g>
<defs>
<clipPath id="clip0_391_2203">
<rect width="48" height="48" fill="white"/>
</clipPath>
</defs>
</svg>
