<svg width="42" height="42" viewBox="0 0 42 42" fill="none" xmlns="http://www.w3.org/2000/svg">
<rect x="0.5" y="0.5" width="41" height="41" rx="20.5" stroke="#F6F7F9"/>
<path d="M29.47 11.0001H12.53C12.3396 10.9975 12.1505 11.0324 11.9736 11.1028C11.7966 11.1733 11.6353 11.2779 11.4988 11.4107C11.3623 11.5434 11.2533 11.7018 11.178 11.8767C11.1027 12.0517 11.0626 12.2397 11.06 12.4301V29.5701C11.0626 29.7606 11.1027 29.9486 11.178 30.1235C11.2533 30.2985 11.3623 30.4568 11.4988 30.5896C11.6353 30.7224 11.7966 30.827 11.9736 30.8975C12.1505 30.9679 12.3396 31.0028 12.53 31.0001H29.47C29.6604 31.0028 29.8495 30.9679 30.0264 30.8975C30.2034 30.827 30.3647 30.7224 30.5012 30.5896C30.6377 30.4568 30.7467 30.2985 30.822 30.1235C30.8973 29.9486 30.9374 29.7606 30.94 29.5701V12.4301C30.9374 12.2397 30.8973 12.0517 30.822 11.8767C30.7467 11.7018 30.6377 11.5434 30.5012 11.4107C30.3647 11.2779 30.2034 11.1733 30.0264 11.1028C29.8495 11.0324 29.6604 10.9975 29.47 11.0001ZM17.09 27.7401H14.09V18.7401H17.09V27.7401ZM15.59 17.4801C15.1763 17.4801 14.7795 17.3158 14.4869 17.0232C14.1944 16.7307 14.03 16.3339 14.03 15.9201C14.03 15.5064 14.1944 15.1096 14.4869 14.8171C14.7795 14.5245 15.1763 14.3601 15.59 14.3601C15.8097 14.3352 16.0322 14.357 16.2429 14.424C16.4536 14.4911 16.6477 14.6018 16.8127 14.7491C16.9776 14.8964 17.1095 15.0768 17.1999 15.2786C17.2902 15.4804 17.3369 15.699 17.3369 15.9201C17.3369 16.1412 17.2902 16.3599 17.1999 16.5617C17.1095 16.7635 16.9776 16.9439 16.8127 17.0912C16.6477 17.2385 16.4536 17.3492 16.2429 17.4163C16.0322 17.4833 15.8097 17.5051 15.59 17.4801ZM27.91 27.7401H24.91V22.9101C24.91 21.7001 24.48 20.9101 23.39 20.9101C23.0527 20.9126 22.7242 21.0184 22.4488 21.2133C22.1735 21.4082 21.9645 21.6828 21.85 22.0001C21.7717 22.2352 21.7378 22.4827 21.75 22.7301V27.7301H18.75V18.7301H21.75V20.0001C22.0225 19.5272 22.4189 19.1377 22.8964 18.8733C23.374 18.609 23.9146 18.48 24.46 18.5001C26.46 18.5001 27.91 19.7901 27.91 22.5601V27.7401Z" fill="#F6F7F9"/>
</svg>
