<svg width="24" height="20" viewBox="0 0 24 20" fill="none" xmlns="http://www.w3.org/2000/svg">
<path d="M0 20V3.59788C0.142344 2.66973 0.576424 1.81494 1.23596 1.16402C1.99282 0.439067 2.98241 0.024851 4.01688 0V16.1905C3.92032 17.2471 3.44273 18.2285 2.67792 18.9418C1.93753 19.6128 0.987216 19.9883 0 20Z" fill="#212430"/>
<path d="M5.14987 13.2275H11.1237C11.0894 15.485 11.055 17.7425 11.0207 20C11.3235 19.9937 12.7655 19.9291 13.9046 18.7302C14.5278 18.0656 14.9252 17.2119 15.0376 16.2963V13.3333L18.5395 13.2275C20.0904 12.9628 21.4963 12.1321 22.4991 10.888C23.5019 9.64389 24.0342 8.0699 23.9983 6.45503C23.9046 3.08995 21.3204 0.283598 18.0245 0H11.1237C11.0894 1.44691 11.055 2.89312 11.0207 4.33862C11.1247 5.30953 11.5631 6.21027 12.2567 6.87831C13.4432 8.00317 14.8779 7.95132 15.1406 7.93651C15.1062 6.66667 15.0719 5.39683 15.0376 4.12698H18.1275C18.6893 4.24866 19.1921 4.56811 19.5491 5.03016C19.906 5.49222 20.0947 6.06785 20.0825 6.65762C20.0702 7.24739 19.8579 7.81425 19.4822 8.26029C19.1064 8.70633 18.5908 9.00352 18.0245 9.10053L8.75476 9.20635C7.76806 9.27781 6.84523 9.73396 6.17511 10.4815C5.50499 11.229 5.13822 12.2113 5.14987 13.2275Z" fill="#212430"/>
</svg>
