<svg width="21" height="20" viewBox="0 0 21 20" fill="none" xmlns="http://www.w3.org/2000/svg">
<path d="M2.5 4.5C2.5 4.22386 2.72386 4 3 4H18C18.2761 4 18.5 4.22386 18.5 4.5C18.5 4.77614 18.2761 5 18 5H3C2.72386 5 2.5 4.77614 2.5 4.5ZM2.5 9.5C2.5 9.22386 2.72386 9 3 9H18C18.2761 9 18.5 9.22386 18.5 9.5C18.5 9.77614 18.2761 10 18 10H3C2.72386 10 2.5 9.77614 2.5 9.5ZM3 14C2.72386 14 2.5 14.2239 2.5 14.5C2.5 14.7761 2.72386 15 3 15H18C18.2761 15 18.5 14.7761 18.5 14.5C18.5 14.2239 18.2761 14 18 14H3Z" fill="#F6F7F9"/>
</svg>
