<svg width="48" height="48" viewBox="0 0 48 48" fill="none" xmlns="http://www.w3.org/2000/svg">
<path d="M38 2H10C7.34881 2.00318 4.80712 3.05776 2.93244 4.93244C1.05776 6.80712 0.00317572 9.34881 0 12L0 36C0.00317572 38.6512 1.05776 41.1929 2.93244 43.0676C4.80712 44.9422 7.34881 45.9968 10 46H38C40.6512 45.9968 43.1929 44.9422 45.0676 43.0676C46.9422 41.1929 47.9968 38.6512 48 36V12C47.9968 9.34881 46.9422 6.80712 45.0676 4.93244C43.1929 3.05776 40.6512 2.00318 38 2ZM10 6H38C39.5913 6 41.1174 6.63214 42.2426 7.75736C43.3679 8.88258 44 10.4087 44 12V14H4V12C4 10.4087 4.63214 8.88258 5.75736 7.75736C6.88258 6.63214 8.4087 6 10 6ZM38 42H10C8.4087 42 6.88258 41.3679 5.75736 40.2426C4.63214 39.1174 4 37.5913 4 36V18H44V36C44 37.5913 43.3679 39.1174 42.2426 40.2426C41.1174 41.3679 39.5913 42 38 42ZM38 26C38 26.5304 37.7893 27.0391 37.4142 27.4142C37.0391 27.7893 36.5304 28 36 28H12C11.4696 28 10.9609 27.7893 10.5858 27.4142C10.2107 27.0391 10 26.5304 10 26C10 25.4696 10.2107 24.9609 10.5858 24.5858C10.9609 24.2107 11.4696 24 12 24H36C36.5304 24 37.0391 24.2107 37.4142 24.5858C37.7893 24.9609 38 25.4696 38 26ZM30 34C30 34.5304 29.7893 35.0391 29.4142 35.4142C29.0391 35.7893 28.5304 36 28 36H12C11.4696 36 10.9609 35.7893 10.5858 35.4142C10.2107 35.0391 10 34.5304 10 34C10 33.4696 10.2107 32.9609 10.5858 32.5858C10.9609 32.2107 11.4696 32 12 32H28C28.5304 32 29.0391 32.2107 29.4142 32.5858C29.7893 32.9609 30 33.4696 30 34ZM6 10C6 9.60444 6.1173 9.21776 6.33706 8.88886C6.55682 8.55996 6.86918 8.30362 7.23463 8.15224C7.60009 8.00087 8.00222 7.96126 8.39018 8.03843C8.77814 8.1156 9.13451 8.30608 9.41421 8.58579C9.69392 8.86549 9.8844 9.22186 9.96157 9.60982C10.0387 9.99778 9.99913 10.3999 9.84776 10.7654C9.69638 11.1308 9.44004 11.4432 9.11114 11.6629C8.78224 11.8827 8.39556 12 8 12C7.46957 12 6.96086 11.7893 6.58579 11.4142C6.21071 11.0391 6 10.5304 6 10ZM12 10C12 9.60444 12.1173 9.21776 12.3371 8.88886C12.5568 8.55996 12.8692 8.30362 13.2346 8.15224C13.6001 8.00087 14.0022 7.96126 14.3902 8.03843C14.7781 8.1156 15.1345 8.30608 15.4142 8.58579C15.6939 8.86549 15.8844 9.22186 15.9616 9.60982C16.0387 9.99778 15.9991 10.3999 15.8478 10.7654C15.6964 11.1308 15.44 11.4432 15.1111 11.6629C14.7822 11.8827 14.3956 12 14 12C13.4696 12 12.9609 11.7893 12.5858 11.4142C12.2107 11.0391 12 10.5304 12 10ZM18 10C18 9.60444 18.1173 9.21776 18.3371 8.88886C18.5568 8.55996 18.8692 8.30362 19.2346 8.15224C19.6001 8.00087 20.0022 7.96126 20.3902 8.03843C20.7781 8.1156 21.1345 8.30608 21.4142 8.58579C21.6939 8.86549 21.8844 9.22186 21.9616 9.60982C22.0387 9.99778 21.9991 10.3999 21.8478 10.7654C21.6964 11.1308 21.44 11.4432 21.1111 11.6629C20.7822 11.8827 20.3956 12 20 12C19.4696 12 18.9609 11.7893 18.5858 11.4142C18.2107 11.0391 18 10.5304 18 10Z" fill="#AC8FF6"/>
</svg>
