<svg width="48" height="48" viewBox="0 0 48 48" fill="none" xmlns="http://www.w3.org/2000/svg">
<path d="M7.334 24C7.3325 27.1303 8.21293 30.1977 9.87439 32.8506C11.5359 35.5036 13.9111 37.6348 16.728 39L8.776 17.214C7.82275 19.3492 7.33136 21.6617 7.334 24ZM24.294 25.458L19.292 39.988C22.6494 40.976 26.2324 40.8829 29.534 39.722C29.4891 39.648 29.449 39.5712 29.414 39.492L24.294 25.458ZM35.252 23.158C35.2284 21.5283 34.7528 19.9372 33.878 18.562C32.9818 17.4354 32.4149 16.0829 32.24 14.654C32.2201 13.8905 32.5036 13.1503 33.0284 12.5955C33.5533 12.0407 34.2766 11.7165 35.04 11.694C35.1133 11.6967 35.1847 11.702 35.254 11.71C33.4749 10.0797 31.3628 8.8553 29.0639 8.12159C26.765 7.38788 24.3341 7.16234 21.9395 7.46058C19.5448 7.75881 17.2436 8.57371 15.1948 9.84889C13.1461 11.1241 11.3989 12.8291 10.074 14.846C10.466 14.858 10.834 14.866 11.148 14.866C12.89 14.866 15.588 14.654 15.588 14.654C15.7649 14.6491 15.9369 14.7123 16.0685 14.8306C16.2001 14.9489 16.2813 15.1132 16.2951 15.2897C16.309 15.4661 16.2545 15.6411 16.143 15.7785C16.0315 15.9159 15.8715 16.0052 15.696 16.028C15.696 16.028 14.792 16.132 13.788 16.186L19.858 34.238L23.506 23.298L20.908 16.186C20.01 16.132 19.16 16.026 19.16 16.026C18.988 15.9996 18.8323 15.9092 18.7242 15.7728C18.616 15.6365 18.5634 15.4643 18.5768 15.2908C18.5902 15.1174 18.6687 14.9553 18.7965 14.8372C18.9243 14.7191 19.092 14.6537 19.266 14.654C19.266 14.654 22.018 14.866 23.656 14.866C25.398 14.866 28.098 14.654 28.098 14.654C28.1882 14.647 28.2789 14.6579 28.3649 14.686C28.451 14.7141 28.5306 14.7589 28.5993 14.8177C28.668 14.8766 28.7245 14.9484 28.7654 15.0291C28.8064 15.1098 28.831 15.1978 28.838 15.288C28.845 15.3782 28.8341 15.4689 28.806 15.5549C28.7779 15.641 28.7331 15.7206 28.6743 15.7893C28.6154 15.858 28.5436 15.9145 28.4629 15.9554C28.3822 15.9964 28.2942 16.021 28.204 16.028C28.204 16.028 27.3 16.132 26.298 16.186L32.32 34.102L34.04 28.652C34.712 26.892 35.12 25.038 35.252 23.158ZM38.738 17.72C38.7073 19.7735 38.2766 21.8013 37.47 23.69L32.38 38.408C36.1344 36.2241 38.888 32.6609 40.0546 28.4772C41.2212 24.2934 40.7086 19.8195 38.626 16.008C38.7007 16.576 38.738 17.1467 38.738 17.72ZM24 4C12.954 4 4 12.954 4 24C4 35.046 12.954 44 24 44C35.046 44 44 35.046 44 24C44 12.954 35.046 4 24 4ZM31.318 41.324C28.437 42.5426 25.2973 43.0223 22.1839 42.7194C19.0706 42.4166 16.0821 41.3409 13.49 39.59C10.4665 37.5496 8.09964 34.6762 6.676 31.318C5.45741 28.437 4.97775 25.2973 5.28056 22.1839C5.58338 19.0706 6.65908 16.0821 8.41 13.49C10.4507 10.4673 13.324 8.1011 16.682 6.678C19.5628 5.45912 22.7024 4.97912 25.8158 5.28159C28.9292 5.58406 31.9177 6.65941 34.51 8.41C37.5334 10.4504 39.9004 13.3238 41.324 16.682C42.5426 19.563 43.0223 22.7027 42.7194 25.8161C42.4166 28.9294 41.3409 31.9179 39.59 34.51C37.5496 37.5334 34.6762 39.9004 31.318 41.324Z" fill="#AC8FF6"/>
</svg>
