<svg width="20" height="20" viewBox="0 0 20 20" fill="none" xmlns="http://www.w3.org/2000/svg">
<path d="M6.9873 2.06583L6.27061 2.28186C4.96708 2.67478 4.00969 3.78795 3.81622 5.13559C3.51925 7.20432 4.18348 9.62236 5.78393 12.3944C7.38101 15.1606 9.13891 16.9432 11.0741 17.723C12.3437 18.2346 13.795 17.9591 14.7889 17.0179L15.3317 16.5039C16.0592 15.8149 16.1646 14.694 15.5783 13.8815L14.2217 12.0013C13.8461 11.4807 13.1807 11.2568 12.5668 11.4445L10.516 12.0715L10.463 12.0819C10.2369 12.1149 9.71565 11.6259 9.06551 10.4998C8.38537 9.32175 8.24441 8.63292 8.43219 8.45535L9.47554 7.48242C10.2575 6.75326 10.4885 5.60722 10.0501 4.63206L9.38866 3.16069C8.97676 2.24445 7.94912 1.77591 6.9873 2.06583ZM8.47658 3.57071L9.13804 5.04209C9.40087 5.62676 9.26236 6.31388 8.79354 6.75107L7.74764 7.72639C7.07854 8.35912 7.30016 9.44212 8.19949 10.9998C9.04569 12.4655 9.81768 13.1898 10.6472 13.0642L10.7715 13.0376L12.8591 12.4008C13.0638 12.3383 13.2856 12.4129 13.4108 12.5864L14.7674 14.4666C15.0605 14.8728 15.0078 15.4333 14.6441 15.7778L14.1013 16.2918C13.3914 16.9641 12.3547 17.1609 11.4479 16.7955C9.74981 16.1112 8.145 14.4839 6.64995 11.8944C5.15185 9.29963 4.54555 7.09248 4.80607 5.27769C4.94426 4.31509 5.62812 3.51997 6.55921 3.23931L7.2759 3.02328C7.75681 2.87832 8.27063 3.11259 8.47658 3.57071Z" fill="#212430"/>
</svg>
