<svg width="42" height="42" viewBox="0 0 42 42" fill="none" xmlns="http://www.w3.org/2000/svg">
<rect x="0.5" y="0.5" width="41" height="41" rx="20.5" stroke="#212430"/>
<path d="M29.4701 11.0001H12.5301C12.3396 10.9975 12.1506 11.0324 11.9736 11.1028C11.7967 11.1733 11.6354 11.2779 11.4989 11.4107C11.3624 11.5434 11.2533 11.7018 11.1781 11.8767C11.1028 12.0517 11.0627 12.2397 11.0601 12.4301V29.5701C11.0627 29.7606 11.1028 29.9486 11.1781 30.1235C11.2533 30.2985 11.3624 30.4568 11.4989 30.5896C11.6354 30.7224 11.7967 30.827 11.9736 30.8975C12.1506 30.9679 12.3396 31.0028 12.5301 31.0001H29.4701C29.6605 31.0028 29.8496 30.9679 30.0265 30.8975C30.2034 30.827 30.3648 30.7224 30.5013 30.5896C30.6378 30.4568 30.7468 30.2985 30.8221 30.1235C30.8974 29.9486 30.9375 29.7606 30.9401 29.5701V12.4301C30.9375 12.2397 30.8974 12.0517 30.8221 11.8767C30.7468 11.7018 30.6378 11.5434 30.5013 11.4107C30.3648 11.2779 30.2034 11.1733 30.0265 11.1028C29.8496 11.0324 29.6605 10.9975 29.4701 11.0001ZM17.0901 27.7401H14.0901V18.7401H17.0901V27.7401ZM15.5901 17.4801C15.1763 17.4801 14.7795 17.3158 14.487 17.0232C14.1944 16.7307 14.0301 16.3339 14.0301 15.9201C14.0301 15.5064 14.1944 15.1096 14.487 14.8171C14.7795 14.5245 15.1763 14.3601 15.5901 14.3601C15.8098 14.3352 16.0322 14.357 16.2429 14.424C16.4536 14.4911 16.6478 14.6018 16.8127 14.7491C16.9776 14.8964 17.1096 15.0768 17.1999 15.2786C17.2903 15.4804 17.337 15.699 17.337 15.9201C17.337 16.1412 17.2903 16.3599 17.1999 16.5617C17.1096 16.7635 16.9776 16.9439 16.8127 17.0912C16.6478 17.2385 16.4536 17.3492 16.2429 17.4163C16.0322 17.4833 15.8098 17.5051 15.5901 17.4801ZM27.9101 27.7401H24.9101V22.9101C24.9101 21.7001 24.4801 20.9101 23.3901 20.9101C23.0527 20.9126 22.7242 21.0184 22.4489 21.2133C22.1735 21.4082 21.9645 21.6828 21.8501 22.0001C21.7718 22.2352 21.7379 22.4827 21.7501 22.7301V27.7301H18.7501V18.7301H21.7501V20.0001C22.0226 19.5272 22.419 19.1377 22.8965 18.8733C23.374 18.609 23.9146 18.48 24.4601 18.5001C26.4601 18.5001 27.9101 19.7901 27.9101 22.5601V27.7401Z" fill="#212430"/>
</svg>
