<svg xmlns="http://www.w3.org/2000/svg" width="32" height="32" viewBox="0 0 32 32" fill="none">
<g clip-path="url(#clip0_553_7292)">
<path d="M16.0085 32.0003C13.7679 31.9869 11.5548 31.5056 9.51103 30.5873C7.46723 29.6691 5.63776 28.334 4.1398 26.6677C2.64185 25.0015 1.50844 23.0407 0.81217 20.911C0.115904 18.7813 -0.127864 16.5297 0.0964787 14.3003C0.495106 10.8191 2.01432 7.56177 4.42522 5.01909C6.83611 2.47641 10.0081 0.786139 13.4631 0.202975C15.6952 -0.143335 17.9735 -0.0500304 20.1698 0.477642C20.7481 0.626075 21.276 0.927116 21.6982 1.3493C22.1203 1.77149 22.4214 2.29932 22.5698 2.87764C22.7193 3.45071 22.7116 4.0535 22.5473 4.62253C22.3831 5.19155 22.0684 5.70575 21.6365 6.11098C15.5578 11.6683 16.0831 20.3043 22.7125 25.327C23.1808 25.6949 23.542 26.1815 23.7585 26.7362C23.975 27.291 24.039 27.8936 23.9437 28.4815C23.8484 29.0693 23.5974 29.6209 23.2167 30.0789C22.8361 30.5369 22.3397 30.8845 21.7791 31.0856C19.9162 31.6943 17.9683 32.003 16.0085 32.0003ZM16.1071 2.66698C15.3594 2.66522 14.6127 2.72184 13.8738 2.83631C10.9991 3.32403 8.3604 4.73158 6.35419 6.84743C4.34799 8.96327 3.08269 11.6731 2.74848 14.5696C2.54057 16.4364 2.7323 18.326 3.31092 20.1129C3.88955 21.8998 4.84183 23.5431 6.10448 24.9336C7.95214 26.9081 10.3334 28.3037 12.959 28.9508C15.5846 29.5979 18.3416 29.4687 20.8951 28.579C21.0048 28.5375 21.1016 28.4678 21.1757 28.377C21.2499 28.2861 21.2987 28.1773 21.3174 28.0616C21.3361 27.9458 21.3239 27.8272 21.282 27.7176C21.2402 27.6081 21.1702 27.5115 21.0791 27.4376C13.1738 21.467 12.5525 10.783 19.8165 4.16564C19.8994 4.08816 19.9592 3.98915 19.9891 3.87966C20.019 3.77017 20.0179 3.65452 19.9858 3.54564C19.9582 3.42957 19.8994 3.32326 19.8157 3.23819C19.7321 3.15313 19.6267 3.09254 19.5111 3.06298C18.3966 2.79443 17.2536 2.66146 16.1071 2.66698ZM27.3298 16.0003C27.0326 16.0003 26.7439 15.901 26.5095 15.7181C26.2752 15.5352 26.1087 15.2793 26.0365 14.991L25.5591 13.0843L23.6498 12.571C23.3627 12.4937 23.1096 12.3226 22.9308 12.085C22.7521 11.8473 22.6579 11.5567 22.6633 11.2594C22.6686 10.9621 22.7732 10.6751 22.9604 10.4441C23.1477 10.213 23.4067 10.0512 23.6965 9.98431L25.5631 9.55098L26.0311 7.67631C26.1034 7.38801 26.2699 7.13211 26.5042 6.94927C26.7386 6.76642 27.0273 6.66712 27.3245 6.66712C27.6217 6.66712 27.9104 6.76642 28.1447 6.94927C28.379 7.13211 28.5456 7.38801 28.6178 7.67631L29.0911 9.56698L30.9818 10.0403C31.2701 10.1126 31.526 10.2791 31.7089 10.5134C31.8917 10.7477 31.991 11.0364 31.991 11.3336C31.991 11.6309 31.8917 11.9196 31.7089 12.1539C31.526 12.3882 31.2701 12.5547 30.9818 12.627L29.0911 13.1003L28.6178 14.991C28.5458 15.2784 28.3801 15.5337 28.1469 15.7165C27.9136 15.8992 27.6261 15.9991 27.3298 16.0003ZM21.3298 18.667C21.3298 19.0206 21.4703 19.3597 21.7203 19.6098C21.9704 19.8598 22.3095 20.0003 22.6631 20.0003C23.0168 20.0003 23.3559 19.8598 23.606 19.6098C23.856 19.3597 23.9965 19.0206 23.9965 18.667C23.9965 18.3134 23.856 17.9742 23.606 17.7242C23.3559 17.4741 23.0168 17.3336 22.6631 17.3336C22.3095 17.3336 21.9704 17.4741 21.7203 17.7242C21.4703 17.9742 21.3298 18.3134 21.3298 18.667ZM29.3298 24.0003C29.3298 24.3539 29.4703 24.6931 29.7203 24.9431C29.9704 25.1932 30.3095 25.3336 30.6631 25.3336C31.0168 25.3336 31.3559 25.1932 31.606 24.9431C31.856 24.6931 31.9965 24.3539 31.9965 24.0003C31.9965 23.6467 31.856 23.3075 31.606 23.0575C31.3559 22.8075 31.0168 22.667 30.6631 22.667C30.3095 22.667 29.9704 22.8075 29.7203 23.0575C29.4703 23.3075 29.3298 23.6467 29.3298 24.0003Z" fill="#AC8FF6"/>
</g>
<defs>
<clipPath id="clip0_553_7292">
<rect width="32" height="32" fill="white"/>
</clipPath>
</defs>
</svg>