<svg width="42" height="42" viewBox="0 0 42 42" fill="none" xmlns="http://www.w3.org/2000/svg">
<rect x="0.5" y="0.5" width="41" height="41" rx="20.5" stroke="#F6F7F9"/>
<path d="M31 21C31.0016 22.3172 30.7423 23.6216 30.2369 24.8379C29.7315 26.0542 28.9901 27.1584 28.0555 28.0865C27.1285 29.0118 26.0282 29.7453 24.8176 30.2452C23.607 30.7451 22.3098 31.0016 21 31C15.477 31 11 26.523 11 21C10.9964 18.4359 11.9814 15.969 13.75 14.1125C14.6831 13.1277 15.8074 12.3438 17.054 11.8086C18.3006 11.2734 19.6434 10.9983 21 11C22.3098 10.9984 23.607 11.2549 24.8176 11.7548C26.0282 12.2547 27.1285 12.9882 28.0555 13.9135C28.9901 14.8417 29.7315 15.9458 30.2369 17.1621C30.7423 18.3784 31.0016 19.6829 31 21Z" stroke="#F6F7F9" stroke-width="2" stroke-linecap="round" stroke-linejoin="round"/>
<path d="M31 21.0008C29.541 21.0008 25.516 20.4508 21.9135 22.0323C18 23.7508 15.1665 26.4168 13.9315 28.0743" stroke="#F6F7F9" stroke-width="2" stroke-linecap="round" stroke-linejoin="round"/>
<path d="M17.25 11.7266C18.815 13.1711 22.23 16.8486 23.5 20.4996C24.77 24.1506 25.24 28.6396 25.53 29.9171" stroke="#F6F7F9" stroke-width="2" stroke-linecap="round" stroke-linejoin="round"/>
<path d="M11.077 19.7494C12.966 19.8634 17.9665 19.9659 21.1665 18.5994C24.3665 17.2329 27.12 14.7194 28.0645 13.9219M11.75 24.8059C12.6313 26.9387 14.2205 28.7029 16.25 29.8014" stroke="#F6F7F9" stroke-width="2" stroke-linecap="round" stroke-linejoin="round"/>
<path d="M11 21C10.9964 18.4359 11.9814 15.969 13.75 14.1125C14.6831 13.1277 15.8074 12.3438 17.054 11.8086C18.3006 11.2734 19.6434 10.9983 21 11M25 11.832C26.139 12.3299 27.1752 13.0358 28.0555 13.9135C28.9901 14.8417 29.7315 15.9458 30.2369 17.1621C30.7423 18.3784 31.0016 19.6829 31 21C31 22.231 30.7775 23.4105 30.37 24.5M21 31C22.3098 31.0016 23.607 30.7451 24.8176 30.2452C26.0282 29.7453 27.1285 29.0118 28.0555 28.0865" stroke="#F6F7F9" stroke-width="2" stroke-linecap="round" stroke-linejoin="round"/>
</svg>
