<svg width="48" height="48" viewBox="0 0 48 48" fill="none" xmlns="http://www.w3.org/2000/svg">
<path fill-rule="evenodd" clip-rule="evenodd" d="M17.334 2.50005C15.5999 2.49876 13.9105 3.0495 12.5104 4.0725C11.1103 5.0955 10.0721 6.53764 9.54635 8.19004C9.02057 9.84245 9.03445 11.6193 9.58598 13.2633C10.1375 14.9073 11.198 16.333 12.614 17.334C11.5481 18.0884 10.6789 19.0875 10.0793 20.2474C9.47963 21.4074 9.16712 22.6943 9.16798 24C9.16798 26.7521 10.53 29.188 12.618 30.666C11.4741 31.4757 10.5579 32.5662 9.95746 33.8325C9.35702 35.0988 9.09257 36.4983 9.18956 37.8963C9.28655 39.2944 9.74171 40.644 10.5112 41.8152C11.2808 42.9865 12.3388 43.94 13.5835 44.5839C14.8282 45.2279 16.2177 45.5408 17.6183 45.4923C19.0189 45.4439 20.3834 45.0358 21.5807 44.3073C22.7779 43.5788 23.7675 42.5545 24.4543 41.3329C25.141 40.1113 25.5018 38.7335 25.502 37.3321V30.324C26.3515 31.0123 27.3306 31.523 28.3813 31.8257C29.4319 32.1285 30.5326 32.2172 31.6181 32.0865C32.7036 31.9559 33.7519 31.6086 34.7007 31.0652C35.6494 30.5219 36.4795 29.7935 37.1415 28.9233C37.8035 28.0532 38.284 27.0589 38.5545 25.9995C38.825 24.9402 38.8801 23.8373 38.7164 22.7562C38.5526 21.6752 38.1735 20.6381 37.6014 19.7063C37.0293 18.7746 36.276 17.9672 35.386 17.3321C36.8019 16.3311 37.8625 14.9053 38.414 13.2613C38.9655 11.6173 38.9794 9.84045 38.4536 8.18804C37.9278 6.53564 36.8897 5.0935 35.4896 4.0705C34.0894 3.0475 32.4 2.49676 30.666 2.49805L17.334 2.50005ZM22.5 29.166H17.334C16.6556 29.166 15.9838 29.0324 15.357 28.7728C14.7303 28.5132 14.1608 28.1327 13.6811 27.653C13.2014 27.1733 12.8208 26.6038 12.5612 25.977C12.3016 25.3502 12.168 24.6785 12.168 24C12.168 23.3216 12.3016 22.6499 12.5612 22.0231C12.8208 21.3963 13.2014 20.8268 13.6811 20.3471C14.1608 19.8674 14.7303 19.4869 15.357 19.2273C15.9838 18.9677 16.6556 18.834 17.334 18.834H22.5V29.166ZM17.334 15.834H22.5V5.50005H17.334C15.9636 5.50005 14.6494 6.04443 13.6804 7.01343C12.7114 7.98243 12.167 9.29668 12.167 10.667C12.167 12.0374 12.7114 13.3517 13.6804 14.3207C14.6494 15.2897 15.9636 15.834 17.334 15.834ZM35.834 10.666C35.8345 12.0355 35.2913 13.3491 34.3237 14.3181C33.3561 15.2872 32.0434 15.8325 30.674 15.834H25.5V5.50005H30.668C31.3464 5.50005 32.0182 5.63367 32.6449 5.89329C33.2717 6.1529 33.8412 6.53343 34.3209 7.01314C34.8006 7.49284 35.1811 8.06234 35.4407 8.68911C35.7004 9.31587 35.834 9.98764 35.834 10.666ZM25.5 23.994C25.5016 22.626 26.0457 21.3145 27.0131 20.3471C27.9804 19.3798 29.2919 18.8356 30.66 18.834H30.672C31.6932 18.8352 32.6912 19.1391 33.5398 19.7072C34.3884 20.2753 35.0496 21.0822 35.4399 22.0259C35.8301 22.9696 35.9319 24.0078 35.7324 25.0094C35.5329 26.0109 35.041 26.9308 34.3189 27.653C33.5968 28.3751 32.6768 28.867 31.6753 29.0665C30.6737 29.266 29.6355 29.1642 28.6918 28.774C27.7481 28.3837 26.9412 27.7225 26.3731 26.8739C25.805 26.0252 25.5012 25.0273 25.5 24.0061V23.994ZM17.334 32.166C16.3123 32.166 15.3136 32.469 14.4641 33.0365C13.6146 33.6041 12.9525 34.4108 12.5614 35.3546C12.1703 36.2985 12.0679 37.3371 12.2671 38.3391C12.4663 39.3412 12.9581 40.2617 13.6804 40.9843C14.4026 41.7068 15.3229 42.199 16.3249 42.3985C17.3269 42.5981 18.3655 42.4961 19.3095 42.1054C20.2535 41.7147 21.0605 41.0529 21.6284 40.2036C22.1963 39.3543 22.4996 38.3557 22.5 37.334V32.166H17.334Z" fill="#AC8FF6"/>
</svg>
